<svg width="24" height="25" viewBox="0 0 24 25" fill="none" xmlns="http://www.w3.org/2000/svg">
<path d="M20.7554 17.3419H23.0309V19.6175H0.275391V17.3419H2.55095V9.37749C2.55095 6.96343 3.50993 4.64825 5.21693 2.94125C6.92392 1.23425 9.23911 0.275269 11.6532 0.275269C14.0672 0.275269 16.3824 1.23425 18.0894 2.94125C19.7964 4.64825 20.7554 6.96343 20.7554 9.37749V17.3419ZM18.4798 17.3419V9.37749C18.4798 7.56695 17.7606 5.83056 16.4804 4.55031C15.2001 3.27006 13.4637 2.55082 11.6532 2.55082C9.84262 2.55082 8.10623 3.27006 6.82599 4.55031C5.54574 5.83056 4.8265 7.56695 4.8265 9.37749V17.3419H18.4798ZM8.23983 21.893H15.0665V24.1686H8.23983V21.893Z" fill="#050C44"/>
</svg>
