<svg width="23" height="24" viewBox="0 0 23 24" fill="none" xmlns="http://www.w3.org/2000/svg">
<path d="M8.02597 0.897827V3.17338H14.8526V0.897827H17.1282V3.17338H21.6793C21.9811 3.17338 22.2705 3.29326 22.4838 3.50663C22.6972 3.72 22.8171 4.0094 22.8171 4.31116V22.5156C22.8171 22.8174 22.6972 23.1068 22.4838 23.3201C22.2705 23.5335 21.9811 23.6534 21.6793 23.6534H1.1993C0.897544 23.6534 0.608145 23.5335 0.394771 23.3201C0.181396 23.1068 0.0615234 22.8174 0.0615234 22.5156V4.31116C0.0615234 4.0094 0.181396 3.72 0.394771 3.50663C0.608145 3.29326 0.897544 3.17338 1.1993 3.17338H5.75041V0.897827H8.02597ZM20.5415 8.86227H2.33708V21.3778H20.5415V8.86227ZM14.8936 11.2926L16.5024 12.9014L10.8704 18.5334L6.84723 14.5102L8.45832 12.9014L10.8715 15.3157L14.8947 11.2926H14.8936Z" fill="#050C44"/>
</svg>
