<svg width="28" height="30" viewBox="0 0 28 30" fill="none" xmlns="http://www.w3.org/2000/svg">
<path d="M3.50033 29.1667C2.72116 29.1667 2.05438 28.8895 1.49999 28.3351C0.944659 27.7798 0.666992 27.1125 0.666992 26.3334V3.66671C0.666992 2.88754 0.944659 2.22029 1.49999 1.66496C2.05438 1.11057 2.72116 0.833374 3.50033 0.833374H14.8337L23.3337 9.33337V15H20.5003V10.75H13.417V3.66671H3.50033V26.3334H12.0003V29.1667H3.50033ZM20.9253 18.5771L22.4482 20.1L16.9587 25.5542V27.0417H18.4462L23.9357 21.5875L25.4232 23.075L19.3316 29.1667H14.8337V24.6688L20.9253 18.5771ZM25.4232 23.075L20.9253 18.5771L22.9795 16.523C23.2392 16.2632 23.5698 16.1334 23.9712 16.1334C24.3726 16.1334 24.7031 16.2632 24.9628 16.523L27.4774 19.0375C27.7371 19.2973 27.867 19.6278 27.867 20.0292C27.867 20.4306 27.7371 20.7612 27.4774 21.0209L25.4232 23.075Z" fill="#303972"/>
</svg>
