<svg width="23" height="24" viewBox="0 0 23 24" fill="none"
  xmlns="http://www.w3.org/2000/svg">
  <path d="M1.58638 18.0222C1.10541 17.1904 0.731527 16.3012 0.473633 15.3757C1.03491 15.0902 1.50627 14.6551 1.83559 14.1183C2.1649 13.5816 2.33932 12.9643 2.33956 12.3346C2.33979 11.7049 2.16583 11.0874 1.83692 10.5504C1.50801 10.0134 1.03697 9.5779 0.475908 9.29201C0.990225 7.4323 1.9695 5.73412 3.32149 4.35747C3.84953 4.70076 4.46225 4.89127 5.09185 4.9079C5.72145 4.92454 6.34337 4.76665 6.8888 4.45171C7.43422 4.13678 7.88188 3.67707 8.18222 3.12348C8.48256 2.56989 8.62388 1.94399 8.59054 1.31505C10.4589 0.832202 12.4194 0.832985 14.2874 1.31733C14.2543 1.94625 14.3959 2.57205 14.6965 3.12549C14.9971 3.67893 15.4449 4.13842 15.9904 4.45311C16.536 4.7678 17.1579 4.92543 17.7875 4.90855C18.4171 4.89167 19.0297 4.70094 19.5576 4.35747C20.2164 5.02876 20.8012 5.79221 21.2927 6.6444C21.7853 7.4966 22.154 8.3852 22.4054 9.29087C21.8442 9.57634 21.3728 10.0115 21.0435 10.5482C20.7142 11.085 20.5397 11.7023 20.5395 12.332C20.5393 12.9617 20.7132 13.5792 21.0421 14.1162C21.3711 14.6532 21.8421 15.0887 22.4032 15.3746C21.8888 17.2343 20.9096 18.9325 19.5576 20.3091C19.0295 19.9658 18.4168 19.7753 17.7872 19.7587C17.1576 19.742 16.5357 19.8999 15.9903 20.2149C15.4448 20.5298 14.9972 20.9895 14.6968 21.5431C14.3965 22.0967 14.2552 22.7226 14.2885 23.3515C12.4202 23.8344 10.4596 23.8336 8.59168 23.3493C8.62473 22.7203 8.48313 22.0945 8.18256 21.5411C7.88198 20.9877 7.43415 20.5282 6.88862 20.2135C6.34309 19.8988 5.72113 19.7411 5.09156 19.758C4.462 19.7749 3.84938 19.9656 3.32149 20.3091C2.64905 19.623 2.06606 18.8546 1.58638 18.0222ZM8.0262 18.2452C9.23865 18.9445 10.1503 20.0668 10.5862 21.3968C11.154 21.4503 11.724 21.4514 12.2917 21.398C12.728 20.0677 13.64 18.9454 14.8529 18.2463C16.0648 17.5451 17.4931 17.3162 18.8635 17.6035C19.1935 17.1393 19.4779 16.6443 19.7146 16.1266C18.781 15.0838 18.2652 13.733 18.2662 12.3333C18.2662 10.8997 18.801 9.56053 19.7146 8.53994C19.4763 8.02242 19.1906 7.52804 18.8613 7.0631C17.4917 7.35017 16.0644 7.12167 14.8529 6.4214C13.6404 5.72209 12.7288 4.59979 12.2929 3.26975C11.7251 3.21628 11.1551 3.21514 10.5873 3.26861C10.1511 4.59884 9.23908 5.72116 8.0262 6.42026C6.81422 7.12149 5.38596 7.35041 4.01553 7.0631C3.68622 7.52764 3.40128 8.02209 3.16448 8.53994C4.0981 9.58278 4.61387 10.9336 4.61287 12.3333C4.61287 13.7669 4.07811 15.1061 3.16448 16.1266C3.40281 16.6442 3.68847 17.1385 4.01781 17.6035C5.38737 17.3164 6.8147 17.5449 8.0262 18.2452ZM11.4395 15.7466C10.5343 15.7466 9.66607 15.387 9.02594 14.7469C8.38582 14.1068 8.0262 13.2386 8.0262 12.3333C8.0262 11.428 8.38582 10.5598 9.02594 9.9197C9.66607 9.27957 10.5343 8.91996 11.4395 8.91996C12.3448 8.91996 13.213 9.27957 13.8531 9.9197C14.4932 10.5598 14.8529 11.428 14.8529 12.3333C14.8529 13.2386 14.4932 14.1068 13.8531 14.7469C13.213 15.387 12.3448 15.7466 11.4395 15.7466ZM11.4395 13.4711C11.7413 13.4711 12.0307 13.3512 12.2441 13.1378C12.4574 12.9244 12.5773 12.635 12.5773 12.3333C12.5773 12.0315 12.4574 11.7421 12.2441 11.5288C12.0307 11.3154 11.7413 11.1955 11.4395 11.1955C11.1378 11.1955 10.8484 11.3154 10.635 11.5288C10.4216 11.7421 10.3018 12.0315 10.3018 12.3333C10.3018 12.635 10.4216 12.9244 10.635 13.1378C10.8484 13.3512 11.1378 13.4711 11.4395 13.4711Z" fill="#050C44"/>
</svg>
