<svg width="26" height="23" viewBox="0 0 26 23" fill="none"
  xmlns="http://www.w3.org/2000/svg">
  <path d="M21.4038 22.8934H5.47494C5.17318 22.8934 4.88378 22.7736 4.67041 22.5602C4.45703 22.3468 4.33716 22.0574 4.33716 21.7557V11.5157H0.923828L12.6737 0.834193C12.8831 0.64359 13.1562 0.537964 13.4394 0.537964C13.7226 0.537964 13.9956 0.64359 14.2051 0.834193L25.9549 11.5157H22.5416V21.7557C22.5416 22.0574 22.4217 22.3468 22.2084 22.5602C21.995 22.7736 21.7056 22.8934 21.4038 22.8934ZM6.61272 20.6179H20.2661V9.41873L13.4394 3.21329L6.61272 9.41873V20.6179ZM13.4394 16.0668C12.685 16.0668 11.9615 15.7671 11.4281 15.2336C10.8946 14.7002 10.5949 13.9767 10.5949 13.2223C10.5949 12.4679 10.8946 11.7444 11.4281 11.211C11.9615 10.6776 12.685 10.3779 13.4394 10.3779C14.1938 10.3779 14.9173 10.6776 15.4507 11.211C15.9841 11.7444 16.2838 12.4679 16.2838 13.2223C16.2838 13.9767 15.9841 14.7002 15.4507 15.2336C14.9173 15.7671 14.1938 16.0668 13.4394 16.0668Z" fill="#050C44"/>
</svg>
