<svg width="55" height="55" viewBox="0 0 55 55" fill="none" xmlns="http://www.w3.org/2000/svg">
<path d="M27.5001 0.416504C42.4582 0.416504 54.5834 12.5417 54.5834 27.4998C54.5834 42.458 42.4582 54.5832 27.5001 54.5832C12.542 54.5832 0.416748 42.458 0.416748 27.4998C0.416748 12.5417 12.542 0.416504 27.5001 0.416504ZM27.5001 5.83317C21.7537 5.83317 16.2427 8.1159 12.1794 12.1792C8.11615 16.2425 5.83342 21.7535 5.83342 27.4998C5.83342 33.2462 8.11615 38.7572 12.1794 42.8205C16.2427 46.8838 21.7537 49.1665 27.5001 49.1665C33.2464 49.1665 38.7574 46.8838 42.8207 42.8205C46.884 38.7572 49.1668 33.2462 49.1668 27.4998C49.1668 21.7535 46.884 16.2425 42.8207 12.1792C38.7574 8.1159 33.2464 5.83317 27.5001 5.83317ZM27.473 22.0832C28.9842 22.0832 30.2084 23.3073 30.2084 24.8186V38.6961C30.7247 38.9942 31.1282 39.4543 31.3563 40.0051C31.5845 40.5559 31.6245 41.1666 31.4702 41.7425C31.3159 42.3183 30.9759 42.8272 30.5029 43.1901C30.0299 43.5531 29.4504 43.7498 28.8542 43.7498H27.5272C27.1679 43.7498 26.8122 43.6791 26.4804 43.5416C26.1485 43.4042 25.8469 43.2027 25.5929 42.9487C25.3389 42.6946 25.1374 42.3931 25 42.0612C24.8625 41.7293 24.7917 41.3736 24.7917 41.0144V27.4998C24.0735 27.4998 23.3846 27.2145 22.8767 26.7066C22.3688 26.1987 22.0834 25.5098 22.0834 24.7915C22.0834 24.0732 22.3688 23.3843 22.8767 22.8764C23.3846 22.3685 24.0735 22.0832 24.7917 22.0832H27.473ZM27.5001 13.9582C28.2184 13.9582 28.9073 14.2435 29.4152 14.7514C29.9231 15.2593 30.2084 15.9482 30.2084 16.6665C30.2084 17.3848 29.9231 18.0737 29.4152 18.5816C28.9073 19.0895 28.2184 19.3748 27.5001 19.3748C26.7818 19.3748 26.0929 19.0895 25.585 18.5816C25.0771 18.0737 24.7917 17.3848 24.7917 16.6665C24.7917 15.9482 25.0771 15.2593 25.585 14.7514C26.0929 14.2435 26.7818 13.9582 27.5001 13.9582Z" fill="#050C44"/>
</svg>
